<svg xmlns="http://www.w3.org/2000/svg" xmlns:xlink="http://www.w3.org/1999/xlink" width="180" zoomAndPan="magnify" viewBox="0 0 135 168.749997" height="225" preserveAspectRatio="xMidYMid meet" version="1.0"><defs><g/><clipPath id="e4b5ab13e2"><path d="M 0.101562 40 L 68 40 L 68 159.515625 L 0.101562 159.515625 Z M 0.101562 40 " clip-rule="nonzero"/></clipPath><clipPath id="b3103f671c"><path d="M 67 40 L 134.152344 40 L 134.152344 159.515625 L 67 159.515625 Z M 67 40 " clip-rule="nonzero"/></clipPath><clipPath id="07e6ac8d2b"><path d="M 0.101562 0 L 134.152344 0 L 134.152344 82 L 0.101562 82 Z M 0.101562 0 " clip-rule="nonzero"/></clipPath></defs><g clip-path="url(#e4b5ab13e2)"><path fill="#2956b2" d="M 67.148438 93.511719 L 67.148438 81.386719 L 0.101562 81.386719 L 0.101562 119.125 L 67.148438 119.125 Z M 0.101562 119.125 L 67.148438 159.78125 L 67.148438 119.125 Z M 0.101562 40.730469 L 67.148438 40.730469 L 67.148438 81.386719 L 0.101562 81.386719 Z M 0.101562 40.730469 " fill-opacity="1" fill-rule="nonzero"/></g><g clip-path="url(#b3103f671c)"><path fill="#162f61" d="M 67.148438 81.386719 L 67.148438 119.125 L 134.199219 119.125 L 134.199219 81.386719 Z M 67.148438 40.730469 L 134.199219 40.730469 L 134.199219 81.386719 L 67.148438 81.386719 Z M 67.148438 159.78125 L 134.199219 119.125 L 67.148438 119.125 Z M 67.148438 159.78125 " fill-opacity="1" fill-rule="nonzero"/></g><g clip-path="url(#07e6ac8d2b)"><path fill="#3572eb" d="M 67.148438 81.386719 L 0.101562 40.730469 L 67.148438 0.0703125 L 134.199219 40.730469 Z M 67.148438 81.386719 " fill-opacity="1" fill-rule="nonzero"/></g><g fill="#2956b2" fill-opacity="1"><g transform="translate(18.34429, 130.989957)"><g><path d="M 26.71875 -39.1875 L 20.5 -39.1875 L 20.5 -1.4375 C 20.5 -0.476562 20.117188 0 19.359375 0 L 8.328125 0 C 7.566406 0 7.1875 -0.476562 7.1875 -1.4375 L 7.1875 -39.1875 L 0.921875 -39.1875 C 0.160156 -39.1875 -0.21875 -39.695312 -0.21875 -40.71875 L -0.21875 -49.703125 C -0.21875 -50.742188 0.160156 -51.265625 0.921875 -51.265625 L 26.71875 -51.265625 C 27.507812 -51.265625 27.90625 -50.742188 27.90625 -49.703125 L 27.90625 -40.71875 C 27.90625 -39.695312 27.507812 -39.1875 26.71875 -39.1875 Z M 26.71875 -39.1875 "/></g></g></g></svg>