<svg xmlns="http://www.w3.org/2000/svg" xmlns:xlink="http://www.w3.org/1999/xlink" width="145" zoomAndPan="magnify" viewBox="0 0 108.75 42.75" height="57" preserveAspectRatio="xMidYMid meet" version="1.0"><defs><g/><clipPath id="1565164156"><path d="M 0.191406 10 L 18 10 L 18 41.753906 L 0.191406 41.753906 Z M 0.191406 10 " clip-rule="nonzero"/></clipPath><clipPath id="33af91a5fe"><path d="M 17 10 L 35.238281 10 L 35.238281 41.753906 L 17 41.753906 Z M 17 10 " clip-rule="nonzero"/></clipPath><clipPath id="1940585613"><path d="M 0.191406 0 L 35.238281 0 L 35.238281 22 L 0.191406 22 Z M 0.191406 0 " clip-rule="nonzero"/></clipPath></defs><g clip-path="url(#1565164156)"><path fill="#2956b2" d="M 17.742188 24.480469 L 17.742188 21.308594 L 0.191406 21.308594 L 0.191406 31.183594 L 17.742188 31.183594 Z M 0.191406 31.183594 L 17.742188 41.828125 L 17.742188 31.183594 Z M 0.191406 10.664062 L 17.742188 10.664062 L 17.742188 21.308594 L 0.191406 21.308594 Z M 0.191406 10.664062 " fill-opacity="1" fill-rule="nonzero"/></g><g clip-path="url(#33af91a5fe)"><path fill="#162f61" d="M 17.742188 21.308594 L 17.742188 31.183594 L 35.296875 31.183594 L 35.296875 21.308594 Z M 17.742188 10.664062 L 35.296875 10.664062 L 35.296875 21.308594 L 17.742188 21.308594 Z M 17.742188 41.828125 L 35.296875 31.183594 L 17.742188 31.183594 Z M 17.742188 41.828125 " fill-opacity="1" fill-rule="nonzero"/></g><g clip-path="url(#1940585613)"><path fill="#3572eb" d="M 17.742188 21.308594 L 0.191406 10.664062 L 17.742188 0.0195312 L 35.296875 10.664062 Z M 17.742188 21.308594 " fill-opacity="1" fill-rule="nonzero"/></g><g fill="#ffffff" fill-opacity="1"><g transform="translate(42.819467, 27.254498)"><g><path d="M 7 -10.265625 L 5.375 -10.265625 L 5.375 -0.375 C 5.375 -0.125 5.269531 0 5.0625 0 L 2.1875 0 C 1.976562 0 1.875 -0.125 1.875 -0.375 L 1.875 -10.265625 L 0.25 -10.265625 C 0.0390625 -10.265625 -0.0625 -10.394531 -0.0625 -10.65625 L -0.0625 -13.015625 C -0.0625 -13.285156 0.0390625 -13.421875 0.25 -13.421875 L 7 -13.421875 C 7.207031 -13.421875 7.3125 -13.285156 7.3125 -13.015625 L 7.3125 -10.65625 C 7.3125 -10.394531 7.207031 -10.265625 7 -10.265625 Z M 7 -10.265625 "/></g></g></g><g fill="#ffffff" fill-opacity="1"><g transform="translate(50.058264, 27.254498)"><g><path d="M 5.171875 -13.421875 L 7.9375 -13.421875 C 8.007812 -13.421875 8.085938 -13.394531 8.171875 -13.34375 C 8.253906 -13.300781 8.296875 -13.195312 8.296875 -13.03125 L 8.296875 -0.390625 C 8.296875 -0.128906 8.160156 0 7.890625 0 L 5.171875 0 C 4.929688 0 4.8125 -0.128906 4.8125 -0.390625 L 4.8125 -5.34375 L 3.859375 -5.34375 L 3.859375 -0.390625 C 3.859375 -0.128906 3.738281 0 3.5 0 L 0.734375 0 C 0.492188 0 0.375 -0.128906 0.375 -0.390625 L 0.375 -13.015625 C 0.375 -13.285156 0.492188 -13.421875 0.734375 -13.421875 L 3.5 -13.421875 C 3.738281 -13.421875 3.859375 -13.285156 3.859375 -13.015625 L 3.859375 -8.484375 L 4.8125 -8.484375 L 4.8125 -13.015625 C 4.8125 -13.117188 4.835938 -13.210938 4.890625 -13.296875 C 4.953125 -13.378906 5.046875 -13.421875 5.171875 -13.421875 Z M 5.171875 -13.421875 "/></g></g></g><g fill="#ffffff" fill-opacity="1"><g transform="translate(58.731253, 27.254498)"><g><path d="M 3.859375 -3.140625 L 7.25 -3.140625 C 7.457031 -3.140625 7.5625 -3.015625 7.5625 -2.765625 L 7.5625 -0.375 C 7.5625 -0.125 7.457031 0 7.25 0 L 0.734375 0 C 0.492188 0 0.375 -0.128906 0.375 -0.390625 L 0.375 -13.015625 C 0.375 -13.285156 0.492188 -13.421875 0.734375 -13.421875 L 7.1875 -13.421875 C 7.363281 -13.421875 7.453125 -13.285156 7.453125 -13.015625 L 7.453125 -10.65625 C 7.453125 -10.394531 7.363281 -10.265625 7.1875 -10.265625 L 3.859375 -10.265625 L 3.859375 -8.28125 L 6.46875 -8.28125 C 6.570312 -8.28125 6.648438 -8.25 6.703125 -8.1875 C 6.765625 -8.125 6.796875 -8.023438 6.796875 -7.890625 L 6.796875 -5.53125 C 6.796875 -5.269531 6.6875 -5.140625 6.46875 -5.140625 L 3.859375 -5.140625 Z M 3.859375 -3.140625 "/></g></g></g><g fill="#ffffff" fill-opacity="1"><g transform="translate(66.347977, 27.254498)"><g/></g></g><g fill="#ffffff" fill-opacity="1"><g transform="translate(71.270744, 27.254498)"><g><path d="M 7.921875 -9.96875 L 7.921875 -8.875 C 7.921875 -8.71875 7.898438 -8.601562 7.859375 -8.53125 C 7.816406 -8.457031 7.722656 -8.421875 7.578125 -8.421875 L 5 -8.421875 C 4.875 -8.421875 4.789062 -8.453125 4.75 -8.515625 C 4.707031 -8.578125 4.6875 -8.675781 4.6875 -8.8125 L 4.6875 -9.859375 C 4.6875 -9.941406 4.671875 -10.03125 4.640625 -10.125 C 4.617188 -10.226562 4.570312 -10.316406 4.5 -10.390625 C 4.4375 -10.460938 4.34375 -10.5 4.21875 -10.5 C 4.050781 -10.5 3.925781 -10.4375 3.84375 -10.3125 C 3.757812 -10.1875 3.71875 -10.046875 3.71875 -9.890625 L 3.71875 -3.578125 C 3.71875 -3.410156 3.75 -3.257812 3.8125 -3.125 C 3.882812 -2.988281 4.019531 -2.921875 4.21875 -2.921875 C 4.4375 -2.921875 4.578125 -2.988281 4.640625 -3.125 C 4.703125 -3.257812 4.734375 -3.410156 4.734375 -3.578125 L 4.734375 -4.953125 C 4.734375 -5.097656 4.753906 -5.195312 4.796875 -5.25 C 4.835938 -5.3125 4.914062 -5.34375 5.03125 -5.34375 L 7.625 -5.34375 C 7.757812 -5.34375 7.851562 -5.316406 7.90625 -5.265625 C 7.957031 -5.222656 7.984375 -5.128906 7.984375 -4.984375 L 7.984375 -3.375 C 7.984375 -2.789062 7.882812 -2.273438 7.6875 -1.828125 C 7.488281 -1.378906 7.21875 -1.003906 6.875 -0.703125 C 6.53125 -0.398438 6.128906 -0.171875 5.671875 -0.015625 C 5.210938 0.140625 4.71875 0.21875 4.1875 0.21875 C 3.664062 0.21875 3.164062 0.140625 2.6875 -0.015625 C 2.21875 -0.171875 1.796875 -0.398438 1.421875 -0.703125 C 1.054688 -1.003906 0.765625 -1.378906 0.546875 -1.828125 C 0.335938 -2.273438 0.234375 -2.789062 0.234375 -3.375 L 0.234375 -10.046875 C 0.234375 -10.566406 0.328125 -11.039062 0.515625 -11.46875 C 0.703125 -11.90625 0.972656 -12.285156 1.328125 -12.609375 C 1.679688 -12.929688 2.097656 -13.179688 2.578125 -13.359375 C 3.066406 -13.546875 3.601562 -13.640625 4.1875 -13.640625 C 4.863281 -13.640625 5.4375 -13.53125 5.90625 -13.3125 C 6.382812 -13.101562 6.769531 -12.820312 7.0625 -12.46875 C 7.363281 -12.113281 7.582031 -11.71875 7.71875 -11.28125 C 7.851562 -10.851562 7.921875 -10.414062 7.921875 -9.96875 Z M 7.921875 -9.96875 "/></g></g></g><g fill="#ffffff" fill-opacity="1"><g transform="translate(79.439828, 27.254498)"><g><path d="M 4.75 -3.578125 L 4.75 -13.015625 C 4.75 -13.117188 4.78125 -13.210938 4.84375 -13.296875 C 4.914062 -13.378906 5 -13.421875 5.09375 -13.421875 L 7.90625 -13.421875 C 8.019531 -13.421875 8.101562 -13.378906 8.15625 -13.296875 C 8.21875 -13.210938 8.25 -13.117188 8.25 -13.015625 L 8.25 -3.375 C 8.25 -2.875 8.140625 -2.40625 7.921875 -1.96875 C 7.710938 -1.53125 7.421875 -1.144531 7.046875 -0.8125 C 6.679688 -0.488281 6.257812 -0.234375 5.78125 -0.046875 C 5.300781 0.128906 4.800781 0.21875 4.28125 0.21875 C 3.757812 0.21875 3.257812 0.128906 2.78125 -0.046875 C 2.3125 -0.234375 1.890625 -0.488281 1.515625 -0.8125 C 1.148438 -1.144531 0.859375 -1.53125 0.640625 -1.96875 C 0.429688 -2.40625 0.328125 -2.875 0.328125 -3.375 L 0.328125 -13.015625 C 0.328125 -13.117188 0.351562 -13.210938 0.40625 -13.296875 C 0.457031 -13.378906 0.519531 -13.421875 0.59375 -13.421875 L 3.5 -13.421875 C 3.632812 -13.421875 3.71875 -13.378906 3.75 -13.296875 C 3.789062 -13.210938 3.8125 -13.117188 3.8125 -13.015625 L 3.8125 -3.578125 C 3.8125 -3.410156 3.84375 -3.257812 3.90625 -3.125 C 3.976562 -2.988281 4.109375 -2.921875 4.296875 -2.921875 C 4.484375 -2.921875 4.601562 -2.988281 4.65625 -3.125 C 4.71875 -3.257812 4.75 -3.410156 4.75 -3.578125 Z M 4.75 -3.578125 "/></g></g></g><g fill="#ffffff" fill-opacity="1"><g transform="translate(88.015913, 27.254498)"><g><path d="M 4.609375 -3.703125 L 4.609375 -4.90625 C 4.609375 -5.0625 4.554688 -5.191406 4.453125 -5.296875 C 4.359375 -5.410156 4.210938 -5.46875 4.015625 -5.46875 L 3.578125 -5.46875 L 3.578125 -3.140625 L 4.046875 -3.140625 C 4.191406 -3.140625 4.320312 -3.191406 4.4375 -3.296875 C 4.550781 -3.410156 4.609375 -3.546875 4.609375 -3.703125 Z M 4.59375 -8.859375 L 4.59375 -9.625 C 4.59375 -9.863281 4.53125 -10.03125 4.40625 -10.125 C 4.289062 -10.21875 4.160156 -10.265625 4.015625 -10.265625 L 3.578125 -10.265625 L 3.578125 -8.25 L 4.015625 -8.25 C 4.171875 -8.25 4.304688 -8.289062 4.421875 -8.375 C 4.535156 -8.457031 4.59375 -8.617188 4.59375 -8.859375 Z M 7.890625 -9.828125 L 7.890625 -9.046875 C 7.890625 -8.703125 7.816406 -8.378906 7.671875 -8.078125 C 7.523438 -7.785156 7.351562 -7.539062 7.15625 -7.34375 C 6.957031 -7.144531 6.773438 -7.019531 6.609375 -6.96875 C 6.722656 -6.925781 6.863281 -6.835938 7.03125 -6.703125 C 7.195312 -6.578125 7.359375 -6.410156 7.515625 -6.203125 C 7.679688 -6.003906 7.816406 -5.765625 7.921875 -5.484375 C 8.035156 -5.210938 8.09375 -4.898438 8.09375 -4.546875 L 8.09375 -3.3125 C 8.09375 -2.84375 7.988281 -2.40625 7.78125 -2 C 7.582031 -1.59375 7.304688 -1.238281 6.953125 -0.9375 C 6.609375 -0.644531 6.222656 -0.414062 5.796875 -0.25 C 5.367188 -0.0820312 4.929688 0 4.484375 0 L 0.734375 0 C 0.492188 0 0.375 -0.128906 0.375 -0.390625 L 0.375 -13.015625 C 0.375 -13.285156 0.492188 -13.421875 0.734375 -13.421875 L 4.203125 -13.421875 C 4.753906 -13.421875 5.253906 -13.320312 5.703125 -13.125 C 6.160156 -12.9375 6.550781 -12.675781 6.875 -12.34375 C 7.207031 -12.019531 7.457031 -11.640625 7.625 -11.203125 C 7.800781 -10.773438 7.890625 -10.316406 7.890625 -9.828125 Z M 7.890625 -9.828125 "/></g></g></g><g fill="#ffffff" fill-opacity="1"><g transform="translate(96.126854, 27.254498)"><g><path d="M 3.859375 -3.140625 L 7.25 -3.140625 C 7.457031 -3.140625 7.5625 -3.015625 7.5625 -2.765625 L 7.5625 -0.375 C 7.5625 -0.125 7.457031 0 7.25 0 L 0.734375 0 C 0.492188 0 0.375 -0.128906 0.375 -0.390625 L 0.375 -13.015625 C 0.375 -13.285156 0.492188 -13.421875 0.734375 -13.421875 L 7.1875 -13.421875 C 7.363281 -13.421875 7.453125 -13.285156 7.453125 -13.015625 L 7.453125 -10.65625 C 7.453125 -10.394531 7.363281 -10.265625 7.1875 -10.265625 L 3.859375 -10.265625 L 3.859375 -8.28125 L 6.46875 -8.28125 C 6.570312 -8.28125 6.648438 -8.25 6.703125 -8.1875 C 6.765625 -8.125 6.796875 -8.023438 6.796875 -7.890625 L 6.796875 -5.53125 C 6.796875 -5.269531 6.6875 -5.140625 6.46875 -5.140625 L 3.859375 -5.140625 Z M 3.859375 -3.140625 "/></g></g></g></svg>